<svg id="Layer_1" data-name="Layer 1" xmlns="http://www.w3.org/2000/svg" viewBox="0 0 1043 1039"><defs><style>.cls-1{fill:red;}.cls-2{fill:#010101;}</style></defs><path class="cls-1" d="M1032,1030H8V6H1032ZM374.07,907.78c.65-5.43,1.2-10.06,1.75-14.69l1.26-.69c2,1.47,4.58,2.55,5.91,4.48,4.6,6.72,9.56,13,16.16,17.91,10.67,8,20.48,17.27,32.88,22.68,3,1.33,6.6,1.43,10.45,2.2-.87-5.3-3.76-8.09-6.39-11q-6-6.64-12.19-13.16a7.15,7.15,0,0,1-1.55-8.32c4.9-.61,9.27.52,12.46,4.24,3.66,4.27,6.88,8.92,10.33,13.36s7,9.26,10.81,13.61c2.43,2.76,5.08,2.34,7.41-.57,1.71-2.14,3.38-4.31,5.07-6.47,4.86,4.8,6.84,12.71,15.61,12.71,2.62-8.51,1.81-16.09-3.49-22.87-1.27-1.62-3.23-3.62-5-3.75-5.23-.4-7-4.06-9.22-7.79-6.32-10.68-10.6-22.25-14.79-33.84a45.68,45.68,0,0,1-2.18-22.17c.34-2.4,1.82-4.63,2.78-6.94l1.43,0,7.11,10.52c6.66,9.86,13.61,19.55,19.87,29.66,4.34,7,8,14.38,15,19.25a7.76,7.76,0,0,1,2.24,3.21c2.34,5.2,2.29,5.22,8.91,3.88-.86-3.83-1.45-7.72-2.63-11.44-3.58-11.34-7.5-22.57-11.06-33.92a26.11,26.11,0,0,1-.23-14.3c1.58-.42,3.14-.54,4.33-1.26a5.68,5.68,0,0,0,2.21-2.94c.69-2.12-1-2.08-2.47-2.44a21.45,21.45,0,0,1-5.41-2.18c-2.9-1.62-2.39-4.6-2.1-7.14.35-3.2,3-4.63,5.73-5.51s4.52.46,5.61,2.81c2.22,4.75,4.59,9.46,6.43,14.36a94.91,94.91,0,0,1,6,28.13,69.39,69.39,0,0,0,3.43,17c.8,2.53,3.48,4.58,5.58,6.55s4.77,3.24,6.65,5.32c3.66,4.06,8.31,4.05,11.52-.42s5.8-9.35,6.38-14.91c.92-8.92,1.52-17.88,2.31-26.82,1.14-12.87,4.42-24.74,14.86-33.6,2.84-2.42,4.88-5.77,7.34-8.65a6,6,0,0,1,2.12-1.86c5.59-2.06,11.15-4.33,16.89-5.84,3-.78,6.33-.22,9.51-.13s6-1.13,7.26-4.12c2.24-5.46,4.1-11.08,6-16.66.64-1.87.49-4.23,1.6-5.66,3.13-4,3.33-8.5,3.46-13.21a65.14,65.14,0,0,1,1.27-8.39,17,17,0,0,1,4.56,13.74c-.95,10.58-2,21.19-3.87,31.63-1.44,7.9-3.2,15.87-7.95,22.84-1.18,1.74-.87,4.8-.58,7.18.42,3.42,3.67,4.8,6.61,3a19.92,19.92,0,0,0,5-4c8.4-10.25,17-20.37,24.85-31,4.8-6.53,8.21-14.29,8.7-22.4.93-15.39,8.34-28.84,11.7-43.46a33.85,33.85,0,0,1,1.8-4.34c4.85,5.25,9.08,10.05,13.55,14.63,4.75,4.88,7,10.7,7.51,17.38.15,1.86,1,3.67,1.94,6.72a83,83,0,0,1,5.21-6.76c1.51-1.57,3.35-3.68,5.17-3.8,1.37-.09,3.62,2.31,4.29,4,4,10.33,6.78,21,4.39,32.14-2.09,9.74-5,19.31-7.11,29a26.77,26.77,0,0,0-.41,10.79c.44,2.11,3,4.1,5.09,5.36.73.44,3.35-1.09,4.29-2.35,4.53-6.07,9.77-11.88,12.94-18.64,11.12-23.73,19.5-48.46,23.37-74.48.85-5.65,3-10.47,7.06-13.67s5.34-7.12,5.65-11.9c.23-3.39.93-6.75,1.47-10.43,3.4,1.87,3.93,2.28,4.14,6.09.76,13.65.54,27.26-2.84,40.65-1,3.89-1.38,7.82.5,12.22l26.81,2.34c0,1.84,0,3.49,0,5.13s-.09,3.33-.18,5c-.41,7.85-1.48,9-9.42,10.38a2.71,2.71,0,0,0-1.38.43c-.85.83-2.08,1.72-2.2,2.7a4.17,4.17,0,0,0,1.6,3,9.66,9.66,0,0,0,11.79,0c2.2-1.72,4.1-3.9,6.47-5.3,3.72-2.19,4.84-5.46,5.41-9.41,2-14.17-.42-28.24-.75-42.36-.21-9.31-.84-18.61-1.33-27.91-.2-4,2.24-5.57,5.38-7.26,3.91-2.1,8-2.16,12-1.82,6.25.52,10.26-2.76,13.28-7.43,2.36-3.64,4-7.71,6.24-12,5.44,3.12,5.86,11.32,13.48,13.06.84-3.48,2.31-6.8,2.3-10.11,0-6.11.15-12.58-1.71-18.26-2.76-8.43-2.38-15.16,4.07-21.76,3.59-3.67,2.66-8.76-.71-12.62a48.42,48.42,0,0,1-5.81-7.42c-5.85-10.28-6.26-17.46-.12-25.25,2.64-3.36,3.24-6.06,1.85-9.84-1.73-4.72-1-7.16,2.91-10.18,1.41-1.09,3.13-1.76,4.64-2.73,3.84-2.44,7.75-4.79,11.42-7.48,3-2.17,3.33-6.51,1.32-9.86-1.52-2.52-3-5.06-4.36-7.7C864,550.84,859,540.05,853.41,529.55c-3.33-6.25-7.63-12.09-8.94-19.16-1.28-6.86-5.77-11.8-10.55-15.55-6.36-5-8.74-11.18-9.82-18.42-.44-2.92,0-5.93-3.49-7.5-.72-.33-1.24-2-1.14-3.05.26-2.58.9-5.13,1.42-7.69.67-3.24,1.36-6.48,2.05-9.72l-1.3-.56-11.25,11.59c-4-3.4-4.86-7.08-4.13-11,1.87-10.19,5.23-19.73,12.36-27.65a23,23,0,0,0,4.24-7.11c3.58-9.63,4.4-19.8,5-29.92.6-9.42,2-18.9-.55-28.31-.5-1.85-.07-4-.07-6.2,6.32-1.69,9.61-6.75,13-11.65A18.45,18.45,0,0,1,851.07,330c7.22-2,12.35-6.72,15.74-13.22,2.05-3.95.06-6.75-4.43-6.73a15.33,15.33,0,0,0-4.38.53,8.56,8.56,0,0,1-9.36-2.57c-3.29-3.75-7.79-3.12-11.81-3.74-4.43-.68-9.1.2-13.51-.51-1.58-.26-3.38-3-3.87-5-.54-2.09.37-4.53.59-6.82.43-4.62,1-9.24,1.17-13.87.11-2.7-1.19-4.75-4.24-5.09-2.76-.32-5.5-.85-8.26-1-6.82-.29-12.56-2.21-15.68-9-.58-1.26-1.89-2.15-2.68-3.34-2.44-3.68-6.92-2.31-10.17-4.24-1-2.73-.66-5.33,1.9-6.94a51.15,51.15,0,0,1,10.25-5.43c4.73-1.63,9.46-3.15,12.38-7.44,2.42-3.55,6-5.48,9.39-7.63a99.13,99.13,0,0,1,9.18-4.71c4.57-2.26,8.34-5.45,10.35-10.18a6.47,6.47,0,0,0-.32-5.07c-.44-.76-2.83-.48-4.35-.51-3-.06-5.93.28-8.84-.07-5.33-.63-10.62-2.3-15.93-2.33s-10.69,1.2-16,2.26c-8.4,1.7-16.78,3.2-24.7,2.44,0-5.06,1.05-10.26-.29-14.74s-6-7.74-9.67-11.2a32.31,32.31,0,0,0-.55,6.74c-.14,9.17-2.62,12.1-11.57,14.38-5.66,1.44-11.26,3.65-13.62,9.47-1.84,4.54-2.74,9.51-3.64,14.36-1.07,5.71-1.37,11.57-2.61,17.23-1,4.76-4.34,5.39-7.93,2a27.49,27.49,0,0,0-2.5-2.45c-3.49-2.54-6.89-4.06-11.74-3.13-4,.78-8.59,3.1-13.46-.61,1.36-1.62,2.8-3.21,4.1-4.92s3.23-3.49,3.58-5.46c.79-4.49-.34-5.77-4.91-7.62-4.93-2-5.87-5.16-2.86-9.69a7.47,7.47,0,0,1,1.51-2c6.14-4.59,12.25-9.23,18.56-13.58,2-1.41,4.38-1.29,5.9,1.37,1.38,2.43,2.85,4.81,4.39,7.14,1.7,2.57,4.36,2.48,5-.44s.08-5.84-.25-8.74a38.9,38.9,0,0,0-1.49-5.7c5.49,2.64,9-.54,12.44-2.84a39.9,39.9,0,0,1,12.72-5.66c5.19-1.35,8.22-2.65,7.25-9.66a35.33,35.33,0,0,0-5.4-1.09,64.45,64.45,0,0,0-10.49,0c-4.12.47-6.65-1.42-8.53-4.63a18.6,18.6,0,0,1-2.36-5.35c-1.87-9.1-3.55-18.24-5.3-27.36-.68-3.59-1.17-7.24-2.13-10.76-.55-2-1.86-3.82-3.38-6.82-1.33,2.9-2,4.53-2.82,6.12-.66,1.33-1.07,3.14-2.16,3.81-2.74,1.7-3,4.23-3.1,6.88-.2,5-.11,10-.45,15-.28,4.22-.77,4.3-5,3.45-4-.8-7.57-1.17-10.48,3.08-3,4.47-13.61,5-17.55,1.35-.72-.67-.63-2.21-1-3.88,2.82.13,4.94.31,7.06.31,1.88,0,3.75-.19,5.79-.31-1.43-5.54-5.58-6.87-9.48-7.71a7,7,0,0,1-5.09-3.29c-3.72-5.93-10.23-4.8-13-.18s-6.24,5.78-11.17,5.33a12.54,12.54,0,0,0-6.52,1.21c-8.72,4.41-17,9.75-26,13.52s-18.69,6.44-28.23,9a23.65,23.65,0,0,0-11.52,7.05,18.32,18.32,0,0,1-3.63,2.37l-1.17-.79c.59-3.89,1-7.82,1.84-11.66.72-3.27,2.67-4.15,5.9-3.63a11.92,11.92,0,0,0,4.49-.2c6.12-1.46,11.11-13.35,9.67-19.53a15.84,15.84,0,0,0-1.78-3.4,17.43,17.43,0,0,1-16.09-2.5c-2.28-1.56-5.46-2.07-8.32-2.46-5.63-.77-9.16-3.56-10.11-9.14-.69-4.09-1-8.25-1.35-12.39-.5-5.52-.91-11.05-1.2-14.72-2.83,2.22-6.46,4.87-9.84,7.82-1.93,1.68-3.29,1.77-5-.17-4-4.55-5.41-4.66-9.65-.24-3.67,3.82-6.9,8.06-10.55,11.92a48.93,48.93,0,0,1-8.34,7.57c-5.92,3.89-10.62,3-15.48-2.23-.54-.58-1.19-1.06-2-1.74-1.11,1-2.34,1.78-2.95,2.86-5.16,9.09-10.06,18.26-10.07,29.17a19.32,19.32,0,0,0,2,8,140.45,140.45,0,0,1,7.37,20.34c1.74,6.74.71,8.24-5.95,9.83-12.36,2.94-12.75,5.1-20.18-7.52-2-3.39-4.66-6.14-9.29-6.5-8.64-.67-17.22-2-25.84-2.86-4.49-.45-8.42-2-10.67-5.91-3.53-6.09-9-6.83-15-6-7.91,1.06-15.79,2.45-23.64,3.94-6.07,1.16-12.41,1.88-18,4.26-8.76,3.74-17.5,6.2-27.09,5.82a15.53,15.53,0,0,0-7.43,2,5.13,5.13,0,0,0-2.15,4.28c.24,1.35,2.14,3.36,3.4,3.44,5.36.31,9.47,3,13.74,5.77,5.56,3.65,11.34,6.87,18.29,7.53a6.59,6.59,0,0,1,6,8.8c-.94,3.22-3.66,4.91-6.71,6.07-1.46.56-3.2,1-4.21,2.06-7.22,7.52-16,9.06-25.69,6.88-5.25-1.18-6.75-4.74-4.25-9.55.3-.58.7-1.12,1-1.72,2.09-4.92.39-7.57-5-7.64-5.83-.07-11.66-.08-17.5,0a50.72,50.72,0,0,0-8.35.64c-7.73,1.41-14.35,5.12-20.32,10.16-7.28,6.13-14.89,11.88-21.9,18.29-4.44,4-7.51,9.24-7.21,15.74.16,3.53,1.7,5.39,5.11,6.15a17.23,17.23,0,0,1,4.48,1.49c5.7,3.15,8.65,8.7,13,14.72l-18.69-1.36c-.61,1.68-.84,3.27-1.69,4.39-1.73,2.27-3.42,4.94-5.79,6.26-7,3.9-14.56,6.71-21.34,10.87-16.37,10.06-32.94,19.83-47.77,32.24A95.22,95.22,0,0,0,152,347.06a14.47,14.47,0,0,0-2.25,6.39c-.4,4.13,1.69,5.45,5.48,3.8a28.15,28.15,0,0,0,4.28-2.33c7.58-5,14.2-11.19,20.71-17.52,3.83-3.73,8.4-6.72,12.79-9.82.87-.62,2.44-.25,4.57-.39-2.48,2.34-4,3.87-5.58,5.26-4.21,3.64-4.37,7.12-.73,11.39A21.66,21.66,0,0,1,195,349.6c2.15,5.32,2,5.52,7.83,5.34,4.21-.14,8.41-.71,12.83-1.11-.59,5.62-1.06,10.58-1.66,15.52-.64,5.26,1.73,8.83,5.94,11.65q11.65,7.8,6.81,21.82l-9.21.4c-.43,3.78-.86,7.48-1.26,11.18-.25,2.28.28,5-.81,6.76-3.68,5.81-8.74,10.88-15.37,12.57-9.15,2.34-16.18,7.55-22.85,13.61-4.34,3.93-3.71,7,2,8.6,4.06,1.12,8.18,2,12.26,3.06,3.93,1,6.27,3.32,6.63,7.57a11.14,11.14,0,0,0,1.63,4.55c1.65,2.75,4.14,5.11,5.27,8,2.53,6.52,3.6,13.11-2,19a37.12,37.12,0,0,0-5.21,7.26c-1,1.7-1.28,3.79-2.2,6.69,5.57-2.54,10-4.56,14.45-6.61,5-2.33,10-4.82,15.09-7,2.27-.95,4.72-1.17,6.9.9,3.75,3.54,4.1,8,.36,11.71-9.84,9.64-19.9,19.07-29.67,28.79-5.87,5.83-11.4,12-14,20.16a42.17,42.17,0,0,1-4.58,9.22A140.81,140.81,0,0,0,168,604.74a105.31,105.31,0,0,0-3.52,18.49c-.45,4.45,1.89,5.62,5.88,3.69,2-1,4-2,6.14-3.09a10.09,10.09,0,0,1,1.11,2c2.74,11.32,10,17,21.5,18.3,4.66.52,6.81,1.1,7.85,7.2a107.1,107.1,0,0,1,1,10.91c.39,6,.51,12,1.09,17.9a7,7,0,0,0,2.42,4.64c2.61,1.77,3.23,4.29,4.22,6.92,1.45,3.83,3,7.81,5.31,11.09,3.72,5.17,7.12,10.28,8,16.8a18.06,18.06,0,0,0,2.12,5.51A27.52,27.52,0,0,1,233.54,742a70.28,70.28,0,0,0-.35,11.43c0,1.4.8,2.79,1.24,4.18,1.14,3.58,2.35,7.14,3.4,10.74.49,1.69.69,3.47,1,5.21l1.3.29c.87-2,2.2-4,2.52-6,1-6.4,2.35-12.9,2.14-19.31-.64-20,5.88-37.88,14.95-55.76,2.39,1.69,4.66,3.61,5,7.09.22,2.49.08,5,.51,7.47.21,1.23,1.09,3,2.09,3.33,3.3,1.22,5.05,3.75,6.21,6.65,3.73,9.34,7.55,18.65,10.74,28.18a67,67,0,0,0,10.33,20.16c2.86,3.69,5.06,7.71,5.25,12.58.35,9,.58,18,1.18,26.93.61,9.28,1.16,18.61,2.56,27.79a249.74,249.74,0,0,0,5.57,24.79c1.7,6.56,3.93,13,5.9,19.48,1.83,6,3.4,12.08,5.6,17.94a7,7,0,0,0,4.68,3.71c3.77.56,7.69.17,11.05.17,4-8.08.38-17.35,6.86-24.78,2.6,3.4,5.41,6,6.87,9.19,4.12,9.06,11.72,15,18.52,21.64C369.81,906.2,371.69,906.62,374.07,907.78Z"/><path class="cls-2" d="M374.07,907.78c-2.38-1.16-4.26-1.58-5.43-2.73-6.8-6.65-14.4-12.58-18.52-21.64-1.46-3.21-4.27-5.79-6.87-9.19-6.48,7.43-2.9,16.7-6.86,24.78-3.36,0-7.28.39-11.05-.17a7,7,0,0,1-4.68-3.71c-2.2-5.86-3.77-12-5.6-17.94-2-6.5-4.2-12.92-5.9-19.48a249.74,249.74,0,0,1-5.57-24.79c-1.4-9.18-1.95-18.51-2.56-27.79-.6-9-.83-18-1.18-26.93-.19-4.87-2.39-8.89-5.25-12.58a67,67,0,0,1-10.33-20.16c-3.19-9.53-7-18.84-10.74-28.18-1.16-2.9-2.91-5.43-6.21-6.65-1-.38-1.88-2.1-2.09-3.33-.43-2.45-.29-5-.51-7.47-.3-3.48-2.57-5.4-5-7.09-9.07,17.88-15.59,35.81-14.95,55.76.21,6.41-1.17,12.91-2.14,19.31-.32,2.09-1.65,4-2.52,6l-1.3-.29c-.33-1.74-.53-3.52-1-5.21-1.05-3.6-2.26-7.16-3.4-10.74-.44-1.39-1.21-2.78-1.24-4.18a70.28,70.28,0,0,1,.35-11.43,27.52,27.52,0,0,0-2.48-16.88,18.06,18.06,0,0,1-2.12-5.51c-.84-6.52-4.24-11.63-8-16.8-2.36-3.28-3.86-7.26-5.31-11.09-1-2.63-1.61-5.15-4.22-6.92a7,7,0,0,1-2.42-4.64c-.58-5.95-.7-11.94-1.09-17.9a107.1,107.1,0,0,0-1-10.91c-1-6.1-3.19-6.68-7.85-7.2-11.49-1.28-18.76-7-21.5-18.3a10.09,10.09,0,0,0-1.11-2c-2.11,1.06-4.11,2.11-6.14,3.09-4,1.93-6.33.76-5.88-3.69A105.31,105.31,0,0,1,168,604.74,140.81,140.81,0,0,1,184,569.29a42.17,42.17,0,0,0,4.58-9.22c2.65-8.2,8.18-14.33,14-20.16,9.77-9.72,19.83-19.15,29.67-28.79,3.74-3.67,3.39-8.17-.36-11.71-2.18-2.07-4.63-1.85-6.9-.9-5.1,2.15-10.06,4.64-15.09,7-4.43,2-8.88,4.07-14.45,6.61.92-2.9,1.22-5,2.2-6.69a37.12,37.12,0,0,1,5.21-7.26c5.62-5.89,4.55-12.48,2-19-1.13-2.91-3.62-5.27-5.27-8a11.14,11.14,0,0,1-1.63-4.55c-.36-4.25-2.7-6.57-6.63-7.57-4.08-1-8.2-1.94-12.26-3.06-5.67-1.57-6.3-4.67-2-8.6,6.67-6.06,13.7-11.27,22.85-13.61,6.63-1.69,11.69-6.76,15.37-12.57,1.09-1.73.56-4.48.81-6.76.4-3.7.83-7.4,1.26-11.18l9.21-.4q4.81-14-6.81-21.82c-4.21-2.82-6.58-6.39-5.94-11.65.6-4.94,1.07-9.9,1.66-15.52-4.42.4-8.62,1-12.83,1.11-5.8.18-5.68,0-7.83-5.34a21.66,21.66,0,0,0-3.69-5.76c-3.64-4.27-3.48-7.75.73-11.39,1.61-1.39,3.1-2.92,5.58-5.26-2.13.14-3.7-.23-4.57.39-4.39,3.1-9,6.09-12.79,9.82-6.51,6.33-13.13,12.48-20.71,17.52a28.15,28.15,0,0,1-4.28,2.33c-3.79,1.65-5.88.33-5.48-3.8a14.47,14.47,0,0,1,2.25-6.39,95.22,95.22,0,0,1,18.62-20.47c14.83-12.41,31.4-22.18,47.77-32.24,6.78-4.16,14.38-7,21.34-10.87,2.37-1.32,4.06-4,5.79-6.26.85-1.12,1.08-2.71,1.69-4.39l18.69,1.36c-4.31-6-7.26-11.57-13-14.72a17.23,17.23,0,0,0-4.48-1.49c-3.41-.76-5-2.62-5.11-6.15-.3-6.5,2.77-11.69,7.21-15.74,7-6.41,14.62-12.16,21.9-18.29,6-5,12.59-8.75,20.32-10.16a50.72,50.72,0,0,1,8.35-.64c5.84-.09,11.67-.08,17.5,0,5.38.07,7.08,2.72,5,7.64-.26.6-.66,1.14-1,1.72-2.5,4.81-1,8.37,4.25,9.55,9.72,2.18,18.47.64,25.69-6.88,1-1.06,2.75-1.5,4.21-2.06,3.05-1.16,5.77-2.85,6.71-6.07a6.59,6.59,0,0,0-6-8.8c-6.95-.66-12.73-3.88-18.29-7.53-4.27-2.81-8.38-5.46-13.74-5.77-1.26-.08-3.16-2.09-3.4-3.44a5.13,5.13,0,0,1,2.15-4.28,15.53,15.53,0,0,1,7.43-2c9.59.38,18.33-2.08,27.09-5.82,5.59-2.38,11.93-3.1,18-4.26,7.85-1.49,15.73-2.88,23.64-3.94,6-.8,11.45-.06,15,6,2.25,3.89,6.18,5.46,10.67,5.91,8.62.86,17.2,2.19,25.84,2.86,4.63.36,7.29,3.11,9.29,6.5,7.43,12.62,7.82,10.46,20.18,7.52,6.66-1.59,7.69-3.09,5.95-9.83A140.45,140.45,0,0,0,480,163.72a19.32,19.32,0,0,1-2-8c0-10.91,4.91-20.08,10.07-29.17.61-1.08,1.84-1.81,2.95-2.86.78.68,1.43,1.16,2,1.74,4.86,5.21,9.56,6.12,15.48,2.23a48.93,48.93,0,0,0,8.34-7.57c3.65-3.86,6.88-8.1,10.55-11.92,4.24-4.42,5.64-4.31,9.65.24,1.71,1.94,3.07,1.85,5,.17,3.38-3,7-5.6,9.84-7.82.29,3.67.7,9.2,1.2,14.72.37,4.14.66,8.3,1.35,12.39,1,5.58,4.48,8.37,10.11,9.14,2.86.39,6,.9,8.32,2.46a17.43,17.43,0,0,0,16.09,2.5,15.84,15.84,0,0,1,1.78,3.4c1.44,6.18-3.55,18.07-9.67,19.53a11.92,11.92,0,0,1-4.49.2c-3.23-.52-5.18.36-5.9,3.63-.85,3.84-1.25,7.77-1.84,11.66l1.17.79a18.32,18.32,0,0,0,3.63-2.37,23.65,23.65,0,0,1,11.52-7.05c9.54-2.55,19.16-5.19,28.23-9s17.29-9.11,26-13.52a12.54,12.54,0,0,1,6.52-1.21c4.93.45,8.52-.82,11.17-5.33s9.23-5.75,13,.18a7,7,0,0,0,5.09,3.29c3.9.84,8.05,2.17,9.48,7.71-2,.12-3.91.31-5.79.31-2.12,0-4.24-.18-7.06-.31.41,1.67.32,3.21,1,3.88,3.94,3.66,14.5,3.12,17.55-1.35,2.91-4.25,6.53-3.88,10.48-3.08,4.21.85,4.7.77,5-3.45.34-5,.25-10,.45-15,.11-2.65.36-5.18,3.1-6.88,1.09-.67,1.5-2.48,2.16-3.81.78-1.59,1.49-3.22,2.82-6.12,1.52,3,2.83,4.81,3.38,6.82,1,3.52,1.45,7.17,2.13,10.76,1.75,9.12,3.43,18.26,5.3,27.36a18.6,18.6,0,0,0,2.36,5.35c1.88,3.21,4.41,5.1,8.53,4.63a64.45,64.45,0,0,1,10.49,0,35.33,35.33,0,0,1,5.4,1.09c1,7-2.06,8.31-7.25,9.66a39.9,39.9,0,0,0-12.72,5.66c-3.4,2.3-6.95,5.48-12.44,2.84a38.9,38.9,0,0,1,1.49,5.7c.33,2.9.84,6,.25,8.74s-3.28,3-5,.44c-1.54-2.33-3-4.71-4.39-7.14-1.52-2.66-3.87-2.78-5.9-1.37-6.31,4.35-12.42,9-18.56,13.58a7.47,7.47,0,0,0-1.51,2c-3,4.53-2.07,7.68,2.86,9.69,4.57,1.85,5.7,3.13,4.91,7.62-.35,2-2.26,3.71-3.58,5.46s-2.74,3.3-4.1,4.92c4.87,3.71,9.43,1.39,13.46.61,4.85-.93,8.25.59,11.74,3.13a27.49,27.49,0,0,1,2.5,2.45c3.59,3.41,6.89,2.78,7.93-2,1.24-5.66,1.54-11.52,2.61-17.23.9-4.85,1.8-9.82,3.64-14.36,2.36-5.82,8-8,13.62-9.47,8.95-2.28,11.43-5.21,11.57-14.38a32.31,32.31,0,0,1,.55-6.74c3.72,3.46,8.28,6.58,9.67,11.2s.29,9.68.29,14.74c7.92.76,16.3-.74,24.7-2.44,5.28-1.06,10.65-2.29,16-2.26s10.6,1.7,15.93,2.33c2.91.35,5.89,0,8.84.07,1.52,0,3.91-.25,4.35.51a6.47,6.47,0,0,1,.32,5.07c-2,4.73-5.78,7.92-10.35,10.18A99.13,99.13,0,0,0,814.1,228c-3.41,2.15-7,4.08-9.39,7.63-2.92,4.29-7.65,5.81-12.38,7.44a51.15,51.15,0,0,0-10.25,5.43c-2.56,1.61-3,4.21-1.9,6.94,3.25,1.93,7.73.56,10.17,4.24.79,1.19,2.1,2.08,2.68,3.34,3.12,6.76,8.86,8.68,15.68,9,2.76.12,5.5.65,8.26,1,3,.34,4.35,2.39,4.24,5.09-.18,4.63-.74,9.25-1.17,13.87-.22,2.29-1.13,4.73-.59,6.82.49,1.93,2.29,4.7,3.87,5,4.41.71,9.08-.17,13.51.51,4,.62,8.52,0,11.81,3.74a8.56,8.56,0,0,0,9.36,2.57,15.33,15.33,0,0,1,4.38-.53c4.49,0,6.48,2.78,4.43,6.73-3.39,6.5-8.52,11.23-15.74,13.22a18.45,18.45,0,0,0-10.83,7.66c-3.34,4.9-6.63,10-13,11.65,0,2.24-.43,4.35.07,6.2,2.54,9.41,1.15,18.89.55,28.31-.65,10.12-1.47,20.29-5,29.92a23,23,0,0,1-4.24,7.11c-7.13,7.92-10.49,17.46-12.36,27.65-.73,4,.09,7.63,4.13,11l11.25-11.59,1.3.56c-.69,3.24-1.38,6.48-2.05,9.72-.52,2.56-1.16,5.11-1.42,7.69-.1,1,.42,2.72,1.14,3.05,3.46,1.57,3,4.58,3.49,7.5,1.08,7.24,3.46,13.44,9.82,18.42,4.78,3.75,9.27,8.69,10.55,15.55,1.31,7.07,5.61,12.91,8.94,19.16,5.59,10.5,10.62,21.29,15.94,31.93,1.32,2.64,2.84,5.18,4.36,7.7,2,3.35,1.65,7.69-1.32,9.86-3.67,2.69-7.58,5-11.42,7.48-1.51,1-3.23,1.64-4.64,2.73-3.87,3-4.64,5.46-2.91,10.18,1.39,3.78.79,6.48-1.85,9.84-6.14,7.79-5.73,15,.12,25.25a48.42,48.42,0,0,0,5.81,7.42c3.37,3.86,4.3,8.95.71,12.62-6.45,6.6-6.83,13.33-4.07,21.76,1.86,5.68,1.68,12.15,1.71,18.26,0,3.31-1.46,6.63-2.3,10.11-7.62-1.74-8-9.94-13.48-13.06-2.21,4.32-3.88,8.39-6.24,12-3,4.67-7,8-13.28,7.43-4.06-.34-8.11-.28-12,1.82-3.14,1.69-5.58,3.3-5.38,7.26.49,9.3,1.12,18.6,1.33,27.91.33,14.12,2.8,28.19.75,42.36-.57,3.95-1.69,7.22-5.41,9.41-2.37,1.4-4.27,3.58-6.47,5.3a9.66,9.66,0,0,1-11.79,0,4.17,4.17,0,0,1-1.6-3c.12-1,1.35-1.87,2.2-2.7a2.71,2.71,0,0,1,1.38-.43c7.94-1.36,9-2.53,9.42-10.38.09-1.66.15-3.33.18-5s0-3.29,0-5.13l-26.81-2.34c-1.88-4.4-1.48-8.33-.5-12.22,3.38-13.39,3.6-27,2.84-40.65-.21-3.81-.74-4.22-4.14-6.09-.54,3.68-1.24,7-1.47,10.43-.31,4.78-1.46,8.58-5.65,11.9s-6.21,8-7.06,13.67c-3.87,26-12.25,50.75-23.37,74.48-3.17,6.76-8.41,12.57-12.94,18.64-.94,1.26-3.56,2.79-4.29,2.35-2.08-1.26-4.65-3.25-5.09-5.36a26.77,26.77,0,0,1,.41-10.79c2.15-9.73,5-19.3,7.11-29,2.39-11.14-.38-21.81-4.39-32.14-.67-1.74-2.92-4.14-4.29-4-1.82.12-3.66,2.23-5.17,3.8a83,83,0,0,0-5.21,6.76c-.91-3-1.79-4.86-1.94-6.72-.54-6.68-2.76-12.5-7.51-17.38-4.47-4.58-8.7-9.38-13.55-14.63a33.85,33.85,0,0,0-1.8,4.34c-3.36,14.62-10.77,28.07-11.7,43.46-.49,8.11-3.9,15.87-8.7,22.4-7.86,10.65-16.45,20.77-24.85,31a19.92,19.92,0,0,1-5,4c-2.94,1.83-6.19.45-6.61-3-.29-2.38-.6-5.44.58-7.18,4.75-7,6.51-14.94,7.95-22.84,1.9-10.44,2.92-21,3.87-31.63A17,17,0,0,0,619.35,766a65.14,65.14,0,0,0-1.27,8.39c-.13,4.71-.33,9.2-3.46,13.21-1.11,1.43-1,3.79-1.6,5.66-1.93,5.58-3.79,11.2-6,16.66-1.23,3-4,4.22-7.26,4.12s-6.53-.65-9.51.13c-5.74,1.51-11.3,3.78-16.89,5.84a6,6,0,0,0-2.12,1.86c-2.46,2.88-4.5,6.23-7.34,8.65-10.44,8.86-13.72,20.73-14.86,33.6-.79,8.94-1.39,17.9-2.31,26.82-.58,5.56-3.15,10.41-6.38,14.91s-7.86,4.48-11.52.42c-1.88-2.08-4.59-3.38-6.65-5.32s-4.78-4-5.58-6.55a69.39,69.39,0,0,1-3.43-17,94.91,94.91,0,0,0-6-28.13c-1.84-4.9-4.21-9.61-6.43-14.36-1.09-2.35-3-3.65-5.61-2.81s-5.38,2.31-5.73,5.51c-.29,2.54-.8,5.52,2.1,7.14a21.45,21.45,0,0,0,5.41,2.18c1.5.36,3.16.32,2.47,2.44a5.68,5.68,0,0,1-2.21,2.94c-1.19.72-2.75.84-4.33,1.26a26.11,26.11,0,0,0,.23,14.3c3.56,11.35,7.48,22.58,11.06,33.92,1.18,3.72,1.77,7.61,2.63,11.44-6.62,1.34-6.57,1.32-8.91-3.88a7.76,7.76,0,0,0-2.24-3.21c-7-4.87-10.66-12.25-15-19.25-6.26-10.11-13.21-19.8-19.87-29.66l-7.11-10.52-1.43,0c-1,2.31-2.44,4.54-2.78,6.94a45.68,45.68,0,0,0,2.18,22.17c4.19,11.59,8.47,23.16,14.79,33.84,2.2,3.73,4,7.39,9.22,7.79,1.77.13,3.73,2.13,5,3.75,5.3,6.78,6.11,14.36,3.49,22.87-8.77,0-10.75-7.91-15.61-12.71-1.69,2.16-3.36,4.33-5.07,6.47-2.33,2.91-5,3.33-7.41.57-3.81-4.35-7.26-9-10.81-13.61s-6.67-9.09-10.33-13.36c-3.19-3.72-7.56-4.85-12.46-4.24a7.15,7.15,0,0,0,1.55,8.32q6.18,6.51,12.19,13.16c2.63,2.91,5.52,5.7,6.39,11-3.85-.77-7.41-.87-10.45-2.2-12.4-5.41-22.21-14.68-32.88-22.68-6.6-4.95-11.56-11.19-16.16-17.91-1.33-1.93-3.91-3-5.91-4.48l-1.26.69C375.27,897.72,374.72,902.35,374.07,907.78ZM449.55,332c-3.19,0-5.25.35-7.15-.06-4.57-1-9.77-1.32-13.43-3.81-7-4.74-14.4-6.34-22.44-7.29a19.11,19.11,0,0,1-10.15-4.23c-8.4-7.66-16.49-15.77-19.67-27.84a14.17,14.17,0,0,0-3.39,4.08c-1.33,2.45-1.92,5.54-3.78,7.4-3.19,3.19-3.32,6.87-3.6,10.84-.4,5.56-.53,11.08-3.94,16.15-3,4.47-.84,12,3.89,15.09,4.89,3.15,10.09,5.83,15.17,8.68,8.18,4.59,15.31,10.18,18.51,19.5,2.24,6.53,4.41,7.36,10,3.39,9-6.45,18.38-12.36,28.72-16.59,9.34-3.84,18.79-6.63,29.4-4.88.5,8.66,1,17.28-1.24,25.76-1.54,5.77-3.85,11.35-9,14.8-4.16,2.78-6.89,6.55-9.2,10.74-6.27,11.37-12.07,23-18.8,34.13C422,450,413.9,461.59,406,473.34c-1,1.56-3,2.48-4.44,3.81-1.9,1.75-4.26,3.31-5.43,5.48a118.51,118.51,0,0,0-5.33,12.72c-2.94,7.5-7,14.57-7.52,22.93-.47,8-1.57,15.9-2.13,23.86a67.63,67.63,0,0,0,.22,11.47c.41,4.15,4.75,7.59,8.43,7.42s4.44-3.45,5.47-5.69c3.11-6.7,5.61-13.69,8.31-20.58,3.09-7.9,6.8-15.35,13.29-21.17a54.28,54.28,0,0,0,7.9-8.76c2.48-3.46,4.26-7.42,6.51-11.05s4.93-3.85,8.07-1c4.93,4.51,5.15,10,3.76,16-5.82,25.28-9.15,50.8-6,76.76,1.89,15.69,4.18,31.33,6.43,47,.31,2.15,1.4,4.19,2.15,6.34,4.7-1.76,4.62-5.53,5.17-8.54,2.4-13.1,1.55-26.25-.71-39.26-2.47-14.21-.93-27.48,5.94-40.41,4-7.6,9.8-14.56,10.65-23.71.16-1.74,1.53-3,3.87-3a16.45,16.45,0,0,0,12.58-5.52c.79-.84,2.11-1.18,3.58-2,.28,1.82.41,2.95.63,4.07.43,2.22.4,4.71,1.46,6.59,1.91,3.37,6.59,4.52,11,3.52,4.2-1,8.05-1,12.31,1.12a24.23,24.23,0,0,0,12.36,2c7.43-.67,14.76-2.46,22.12-3.79,14.1-2.56,28-5.83,41.28-11.36,11.46-4.77,19.35,1.26,20.44,10.85.42,3.68,2.23,7.24,3.66,10.76,2.41,5.92,5.1,11.73,7.52,17.66,2.55,6.25,4.72,12.66,7.45,18.83,1.42,3.22,3.28,3.17,4.61,0a82.12,82.12,0,0,0,4.66-13.46,56.83,56.83,0,0,0,1.21-12.9c0-7.79.5-15.8-1.1-23.32a166.54,166.54,0,0,0-14.34-40c-7.71-15.25-16.07-30.16-24.05-45.27a33.6,33.6,0,0,1-2.75-7.36c-.65-2.56-.92-5.27,1.88-7.68,1.73,1.33,3.83,2.43,5.26,4.1,9.57,11.22,19.15,22.45,28.43,33.92,7.06,8.73,14.44,17.25,19.4,27.53,1,2,3.8,3.26,5.87,4.73,2.52,1.79,5.51,3.07,7.64,5.22,7.56,7.66,15.09,15.41,17.66,26.46.21.88,1.39,2.11,2.15,2.13s2-1.1,2.31-2c1.6-4.36,2.56-8.62,1.07-13.47-2.58-8.36-9-15.15-9.65-24.2-8-16.89-16-33.82-24.21-50.65-1.34-2.76-3.55-5.1-5.36-7.64l-1.56.9c2.21,5.56,4.42,11.12,7.06,17.74-1.94-.77-2.87-.86-3.29-1.36-2.85-3.42-6-6.66-8.29-10.46-5.84-9.92-11.13-20.17-16.87-30.15-7.73-13.46-15.25-27.09-27.13-37.56-4.35-3.83-5.83-8.7-3.88-14s6.93-6,11.85-6.05c6.79-.12,13.24,1.6,19.7,3.53,9.68,2.89,19.36,5.81,29.74,3.52,4.45-1,10-4.79,10.72-9.07,1.58-9.49,7.05-17,12.17-24.66,2.93-4.37,7.16-7.12,12.95-6.38a28.17,28.17,0,0,0,6.49,0c5.64-.6,8.55-3.37,6.87-8.1-2-5.8-5.52-11.14-8.8-16.42-.64-1-3.34-1.36-4.9-1.06-5.59,1-6.12.88-7.7-4.23a20.18,20.18,0,0,0-1.35-2.61,35.49,35.49,0,0,0-4.82,2.48c-10.15,7.39-20,15.2-30.44,22.19-6.67,4.46-13,9.41-22.78,6.17-8.21-2.74-17.45-2.43-26.24-3.35-4.58-.48-9.2-.67-13.79-1.08-10.62-.95-21.23-2.14-31.87-2.88a106.39,106.39,0,0,0-17.49,0c-8.09.78-16.27,1.89-22,8.94a7.07,7.07,0,0,1-3.33,2c-9.75,3.05-19.42,6.48-29.34,8.78-5.05,1.18-7.77,3.42-9.4,8.07-.65,1.88-2.21,4.52-3.73,4.8a69.18,69.18,0,0,1-15.2,1.13c-3.6-.15-4.13-2.22-2.67-5.7C449,336.4,449.09,334.44,449.55,332Zm-7.3-24.53c-3.56-1.06-7.07-1.83-10.37-3.15-3.47-1.38-6.69-3.4-10.11-4.94-3-1.36-6.07-3.26-9.55-2-1.26,3.35-.27,6,2.32,7.59a62.7,62.7,0,0,0,11.14,5.93,28.1,28.1,0,0,0,10.42,1.93C438.93,312.73,442.76,312.33,442.25,307.45ZM617.76,304c4.43,0,8.44.23,12.41-.09a35.19,35.19,0,0,0,7.5-1.87,3.41,3.41,0,0,0,2.24-4.76c-.43-1.07-2.4-2.15-3.69-2.16A54.3,54.3,0,0,0,626,296C621.84,296.81,618.24,300.38,617.76,304Z"/><path class="cls-1" d="M449.55,332c-.46,2.46-.52,4.42-1.23,6.1-1.46,3.48-.93,5.55,2.67,5.7a69.18,69.18,0,0,0,15.2-1.13c1.52-.28,3.08-2.92,3.73-4.8,1.63-4.65,4.35-6.89,9.4-8.07,9.92-2.3,19.59-5.73,29.34-8.78a7.07,7.07,0,0,0,3.33-2c5.69-7,13.87-8.16,22-8.94a106.39,106.39,0,0,1,17.49,0c10.64.74,21.25,1.93,31.87,2.88,4.59.41,9.21.6,13.79,1.08,8.79.92,18,.61,26.24,3.35,9.75,3.24,16.11-1.71,22.78-6.17,10.42-7,20.29-14.8,30.44-22.19a35.49,35.49,0,0,1,4.82-2.48,20.18,20.18,0,0,1,1.35,2.61c1.58,5.11,2.11,5.27,7.7,4.23,1.56-.3,4.26.05,4.9,1.06,3.28,5.28,6.75,10.62,8.8,16.42,1.68,4.73-1.23,7.5-6.87,8.1a28.17,28.17,0,0,1-6.49,0c-5.79-.74-10,2-12.95,6.38C672.7,333,667.23,340.49,665.65,350c-.71,4.28-6.27,8.1-10.72,9.07-10.38,2.29-20.06-.63-29.74-3.52-6.46-1.93-12.91-3.65-19.7-3.53-4.92.09-9.91.81-11.85,6.05s-.47,10.13,3.88,14c11.88,10.47,19.4,24.1,27.13,37.56,5.74,10,11,20.23,16.87,30.15,2.24,3.8,5.44,7,8.29,10.46.42.5,1.35.59,3.29,1.36-2.64-6.62-4.85-12.18-7.06-17.74l1.56-.9c1.81,2.54,4,4.88,5.36,7.64,8.18,16.83,16.16,33.76,24.21,50.65.7,9.05,7.07,15.84,9.65,24.2,1.49,4.85.53,9.11-1.07,13.47-.32.87-1.54,2-2.31,2s-1.94-1.25-2.15-2.13c-2.57-11.05-10.1-18.8-17.66-26.46-2.13-2.15-5.12-3.43-7.64-5.22-2.07-1.47-4.89-2.68-5.87-4.73-5-10.28-12.34-18.8-19.4-27.53-9.28-11.47-18.86-22.7-28.43-33.92-1.43-1.67-3.53-2.77-5.26-4.1-2.8,2.41-2.53,5.12-1.88,7.68a33.6,33.6,0,0,0,2.75,7.36c8,15.11,16.34,30,24.05,45.27a166.54,166.54,0,0,1,14.34,40c1.6,7.52,1.05,15.53,1.1,23.32a56.83,56.83,0,0,1-1.21,12.9,82.12,82.12,0,0,1-4.66,13.46c-1.33,3.18-3.19,3.23-4.61,0-2.73-6.17-4.9-12.58-7.45-18.83-2.42-5.93-5.11-11.74-7.52-17.66-1.43-3.52-3.24-7.08-3.66-10.76-1.09-9.59-9-15.62-20.44-10.85-13.29,5.53-27.18,8.8-41.28,11.36-7.36,1.33-14.69,3.12-22.12,3.79a24.23,24.23,0,0,1-12.36-2c-4.26-2.1-8.11-2.08-12.31-1.12-4.38,1-9.06-.15-11-3.52-1.06-1.88-1-4.37-1.46-6.59-.22-1.12-.35-2.25-.63-4.07-1.47.78-2.79,1.12-3.58,2a16.45,16.45,0,0,1-12.58,5.52c-2.34,0-3.71,1.27-3.87,3-.85,9.15-6.61,16.11-10.65,23.71-6.87,12.93-8.41,26.2-5.94,40.41,2.26,13,3.11,26.16.71,39.26-.55,3-.47,6.78-5.17,8.54-.75-2.15-1.84-4.19-2.15-6.34-2.25-15.65-4.54-31.29-6.43-47-3.13-26,.2-51.48,6-76.76,1.39-6,1.17-11.48-3.76-16-3.14-2.87-5.78-2.69-8.07,1s-4,7.59-6.51,11.05a54.28,54.28,0,0,1-7.9,8.76c-6.49,5.82-10.2,13.27-13.29,21.17-2.7,6.89-5.2,13.88-8.31,20.58-1,2.24-1.77,5.52-5.47,5.69s-8-3.27-8.43-7.42a67.63,67.63,0,0,1-.22-11.47c.56-8,1.66-15.89,2.13-23.86.49-8.36,4.58-15.43,7.52-22.93a118.51,118.51,0,0,1,5.33-12.72c1.17-2.17,3.53-3.73,5.43-5.48,1.43-1.33,3.39-2.25,4.44-3.81C413.9,461.59,422,450,429.4,437.84c6.73-11.09,12.53-22.76,18.8-34.13,2.31-4.19,5-8,9.2-10.74,5.17-3.45,7.48-9,9-14.8,2.26-8.48,1.74-17.1,1.24-25.76-10.61-1.75-20.06,1-29.4,4.88-10.34,4.23-19.67,10.14-28.72,16.59-5.56,4-7.73,3.14-10-3.39-3.2-9.32-10.33-14.91-18.51-19.5-5.08-2.85-10.28-5.53-15.17-8.68-4.73-3.06-6.9-10.62-3.89-15.09,3.41-5.07,3.54-10.59,3.94-16.15.28-4,.41-7.65,3.6-10.84,1.86-1.86,2.45-5,3.78-7.4a14.17,14.17,0,0,1,3.39-4.08c3.18,12.07,11.27,20.18,19.67,27.84a19.11,19.11,0,0,0,10.15,4.23c8,.95,15.49,2.55,22.44,7.29,3.66,2.49,8.86,2.8,13.43,3.81C444.3,332.33,446.36,332,449.55,332Zm69.23,56.13c2.22.92,5.13,1.23,5.69,2.55,1.12,2.61-.92,5.08-3.18,6.35a12.43,12.43,0,0,1-6.28,1.36c-6.4-.23-11.07-4.21-16-7.76a60.78,60.78,0,0,0-10.35-6.21c-3.89-1.76-7.45,1.06-7.55,5.38-.13,5.23,2.18,9.65,4.66,14,2,3.41,3.7,7.26,6.54,9.79,6.08,5.41,20.43,4.73,25-4.68,1.33-2.78,4-5.1,6.49-7.08s5.73-3,8.3-4.88a78.57,78.57,0,0,0,9.66-8.37c1.12-1.15,1.52-3.33,1.52-5,0-.51-2.56-1.52-3.87-1.41-5.53.48-11.06,1.12-16.53,2.1C520.9,384.53,518.64,385.53,518.78,388.11ZM559.14,411c5.09,0,5.09,0,12.48-4.9a12.87,12.87,0,0,0,5.8-13.65c-.92-3.9-3.47-5.36-6.78-3.19a212.2,212.2,0,0,0-17.8,12.86c-3.55,2.88-2.07,7.8,2.31,8.84A17.7,17.7,0,0,0,559.14,411Zm-14.5-49.2c-7.52.82-14.77,1.54-22,2.5-1,.14-2.62,1.47-2.63,2.28,0,1.43.52,3.52,1.58,4.22a38.19,38.19,0,0,0,8.62,4.25C539.2,378.09,546,372.26,544.64,361.76Zm-6,133.27c5.35-.42,7.82-2.35,8.89-6.61a13.87,13.87,0,0,0-6.74-15.81C538.83,479.94,537.26,487.11,538.68,495Zm55.41-158.6c4.45-.8,8.41-1.42,12.32-2.26,2.12-.45,5.36-.53,4.62-3.65-.35-1.46-3.07-2.91-5-3.37C598.27,325.24,594,328.32,594.09,336.43Zm5.94,172a12,12,0,0,0,1.07-13.39c-1.74-3.1-4.23-3.81-8-2.47Z"/><path class="cls-1" d="M442.25,307.45c.51,4.88-3.32,5.28-6.15,5.35a28.1,28.1,0,0,1-10.42-1.93,62.7,62.7,0,0,1-11.14-5.93c-2.59-1.63-3.58-4.24-2.32-7.59,3.48-1.25,6.5.65,9.55,2,3.42,1.54,6.64,3.56,10.11,4.94C435.18,305.62,438.69,306.39,442.25,307.45Z"/><path class="cls-1" d="M617.76,304c.48-3.6,4.08-7.17,8.21-7.94a54.3,54.3,0,0,1,10.25-.94c1.29,0,3.26,1.09,3.69,2.16a3.41,3.41,0,0,1-2.24,4.76,35.19,35.19,0,0,1-7.5,1.87C626.2,304.21,622.19,304,617.76,304Z"/><path class="cls-2" d="M518.78,388.11c-.14-2.58,2.12-3.58,4.1-3.93,5.47-1,11-1.62,16.53-2.1,1.31-.11,3.86.9,3.87,1.41,0,1.7-.4,3.88-1.52,5a78.57,78.57,0,0,1-9.66,8.37c-2.57,1.9-5.81,2.91-8.3,4.88s-5.16,4.3-6.49,7.08c-4.54,9.41-18.89,10.09-25,4.68-2.84-2.53-4.58-6.38-6.54-9.79-2.48-4.31-4.79-8.73-4.66-14,.1-4.32,3.66-7.14,7.55-5.38A60.78,60.78,0,0,1,499,390.61c4.9,3.55,9.57,7.53,16,7.76a12.43,12.43,0,0,0,6.28-1.36c2.26-1.27,4.3-3.74,3.18-6.35C523.91,389.34,521,389,518.78,388.11Z"/><path class="cls-2" d="M559.14,411a17.7,17.7,0,0,1-4,0c-4.38-1-5.86-6-2.31-8.84a212.2,212.2,0,0,1,17.8-12.86c3.31-2.17,5.86-.71,6.78,3.19a12.87,12.87,0,0,1-5.8,13.65C564.23,411,564.23,411,559.14,411Z"/><path class="cls-2" d="M544.64,361.76c1.39,10.5-5.44,16.33-14.43,13.25a38.19,38.19,0,0,1-8.62-4.25c-1.06-.7-1.62-2.79-1.58-4.22,0-.81,1.62-2.14,2.63-2.28C529.87,363.3,537.12,362.58,544.64,361.76Z"/><path class="cls-2" d="M538.68,495c-1.42-7.92.15-15.09,2.15-22.42a13.87,13.87,0,0,1,6.74,15.81C546.5,492.68,544,494.61,538.68,495Z"/><path class="cls-2" d="M594.09,336.43c-.11-8.11,4.18-11.19,12-9.28,1.89.46,4.61,1.91,5,3.37.74,3.12-2.5,3.2-4.62,3.65C602.5,335,598.54,335.63,594.09,336.43Z"/><path class="cls-2" d="M600,508.47l-6.91-15.86c3.75-1.34,6.24-.63,8,2.47A12,12,0,0,1,600,508.47Z"/></svg>